#!OML:ASF X:\für Bonn\!DataBase\2005_08_11_Bastian_Final\c3d\Bastian.ASF
:FULLY-SPECIFIED
:DEGREES
211
root 8.28693 12.8093 -4.02446 192.415 83.471 -158.682
lowerback 61.5843 -5.51785 6.65552
upperback 18.1438 3.5088 5.76092
thorax -0.997127 3.45194 2.13465
lowerneck -9.05855 -10.3957 -1.61773
upperneck -24.6774 -11.6921 11.5895
head -5.1842 -5.97346 4.04081
rclavicle 2.06736e-014 1.59028e-014
rhumerus 22.4666 25.0697 -45.834
rradius 28.9144
rwrist -4.11094
rhand -31.6362 0.146792
rfingers 7.12502
rthumb -4.8975 -29.7766
lclavicle 2.06736e-014 1.59028e-014
lhumerus 4.72293 -24.6095 80.6068
lradius 41.8508
lwrist 19.3929
lhand -12.4455 -10.0435
lfingers 7.12502
lthumb 13.6277 19.4904
rfemur -54.5775 -2.83472 22.2339
rtibia 96.5763
rfoot -24.5608 -5.96022
rtoes -9.29522
lfemur -41.8647 8.32565 -22.0636
ltibia 102.941
lfoot -40.2929 -6.8206
ltoes 2.29518
212
root 8.30975 12.9734 -4.01112 192.42 83.402 -158.823
lowerback 60.9791 -5.46628 6.62581
upperback 18.1933 3.42728 5.74912
thorax -0.939607 3.40633 2.14811
lowerneck -9.18479 -10.374 -1.78099
upperneck -24.5866 -11.6413 11.6367
head -5.12326 -5.92877 4.06833
rclavicle 6.36111e-014 3.26007e-014
rhumerus 21.875 25.9757 -46.0306
rradius 29.3097
rwrist -4.31316
rhand -30.8673 0.46277
rfingers 7.12502
rthumb -4.15502 -29.4765
lclavicle 6.36111e-014 3.26007e-014
lhumerus 4.66703 -24.5514 80.6922
lradius 41.95
lwrist 19.3756
lhand -12.3917 -10.0408
lfingers 7.12502
lthumb 13.6795 19.4896
rfemur -53.5704 -2.67562 22.2726
rtibia 95.0163
rfoot -24.1628 -6.01523
rtoes -9.17233
lfemur -40.9625 8.04454 -21.9147
ltibia 101.166
lfoot -39.8298 -6.72764
ltoes 2.29491
213
root 8.33328 13.1371 -3.99803 192.428 83.335 -158.961
lowerback 60.3419 -5.41516 6.62469
upperback 18.2498 3.35646 5.72585
thorax -0.86738 3.36964 2.13305
lowerneck -9.23879 -10.3605 -1.8979
upperneck -24.5884 -11.594 11.7035
head -5.10478 -5.89312 4.10359
rclavicle 4.6118e-014 -2.06736e-014
rhumerus 21.1937 26.8576 -46.2762
rradius 29.7533
rwrist -4.52456
rhand -30.1634 0.74192
rfingers 7.12502
rthumb -3.4753 -29.2095
lclavicle 4.6118e-014 -2.06736e-014
lhumerus 4.62352 -24.5334 80.7768
lradius 42.0154
lwrist 19.2815
lhand -12.3119 -10.11
lfingers 7.12502
lthumb 13.7564 19.4152
rfemur -52.5686 -2.51359 22.3117
rtibia 93.4392
rfoot -23.7163 -6.10708
rtoes -9.31046
lfemur -40.0645 7.79925 -21.7697
ltibia 99.3724
lfoot -39.3094 -6.64022
ltoes 2.32412
214
root 8.35905 13.3011 -3.98519 192.358 83.2685 -159.152
lowerback 59.716 -5.37932 6.61258
upperback 18.3099 3.26439 5.68406
thorax -0.786246 3.32493 2.1117
lowerneck -9.26677 -10.3367 -2.00592
upperneck -24.6136 -11.5315 11.7667
head -5.09969 -5.85114 4.13922
rclavicle -4.77083e-014 -3.18055e-015
rhumerus 20.5242 27.724 -46.5773
rradius 30.1731
rwrist -4.75778
rhand -29.532 0.953272
rfingers 7.12502
rthumb -2.86545 -29.0072
lclavicle -4.77083e-014 -3.18055e-015
lhumerus 4.5663 -24.5648 80.787
lradius 42.1451
lwrist 19.3381
lhand -12.279 -10.0896
lfingers 7.12502
lthumb 13.7881 19.4335
rfemur -51.5201 -2.36789 22.334
rtibia 91.8472
rfoot -23.3091 -6.12016
rtoes -9.16618
lfemur -39.0969 7.54202 -21.6331
ltibia 97.5541
lfoot -38.8318 -6.53613
ltoes 2.21477
215
root 8.38594 13.4618 -3.97228 192.091 83.2091 -159.57
lowerback 59.0482 -5.31515 6.5639
upperback 18.372 3.17783 5.66305
thorax -0.70334 3.27692 2.12521
lowerneck -9.30427 -10.3107 -2.10616
upperneck -24.6219 -11.4728 11.7999
head -5.0905 -5.80979 4.16324
rclavicle -4.92986e-014 -2.94201e-014
rhumerus 19.8439 28.619 -46.8595
rradius 30.6062
rwrist -5.03441
rhand -28.9209 1.11929
rfingers 7.12502
rthumb -2.27529 -28.8483
lclavicle -4.92986e-014 -2.94201e-014
lhumerus 4.53011 -24.562 80.8496
lradius 42.2074
lwrist 19.3151
lhand -12.3076 -10.0708
lfingers 7.12502
lthumb 13.7606 19.4542
rfemur -50.5217 -2.22898 22.3287
rtibia 90.2638
rfoot -22.8695 -6.14997
rtoes -8.95807
lfemur -38.1715 7.31127 -21.537
ltibia 95.7337
lfoot -38.3025 -6.41113
ltoes 2.08869
216
root 8.41398 13.6229 -3.9583 192.285 83.108 -159.524
lowerback 58.3533 -5.2904 6.60367
upperback 18.4265 3.09041 5.62274
thorax -0.615187 3.23604 2.08075
lowerneck -9.3289 -10.2917 -2.22373
upperneck -24.6218 -11.4097 11.9152
head -5.07327 -5.77027 4.2153
rclavicle -2.06736e-014 1.03368e-014
rhumerus 19.083 29.3446 -47.3402
rradius 30.9656
rwrist -5.21713
rhand -28.3265 1.35114
rfingers 7.12502
rthumb -1.70128 -28.6218
lclavicle -2.06736e-014 1.03368e-014
lhumerus 4.49919 -24.5788 80.8876
lradius 42.256
lwrist 19.2343
lhand -12.3329 -10.0356
lfingers 7.12502
lthumb 13.7362 19.491
rfemur -49.5214 -2.14138 22.4127
rtibia 88.6649
rfoot -22.417 -6.18919
rtoes -8.93218
lfemur -37.2469 7.06115 -21.3666
ltibia 93.9018
lfoot -37.7735 -6.30975
ltoes 1.89842
